<svg xmlns="http://www.w3.org/2000/svg" width="400" height="400" viewBox="0 0 400 400"><g transform="translate(-3048.844 3082)"><rect width="400" height="400" rx="43" transform="translate(3048.844 -3082)" fill="#0077b7"/><path d="M205,0h0a81,81,0,0,1,81,81V270a26,26,0,0,1-26,26H86A86,86,0,0,1,0,210v-5A205,205,0,0,1,205,0Z" transform="translate(3105.844 -3030)" fill="#fff"/><path d="M18.2,0h0A10.8,10.8,0,0,1,29,10.8V219.2A10.8,10.8,0,0,1,18.2,230h0A18.2,18.2,0,0,1,0,211.8V18.2A18.2,18.2,0,0,1,18.2,0Z" transform="translate(3357.844 -2973)" fill="#d5d5d5" opacity="0.78"/><path d="M70.5,0A70.5,70.5,0,1,1,0,70.5,70.5,70.5,0,0,1,70.5,0Z" transform="translate(3178.844 -2928)" fill="#0077b7"/><circle cx="49.5" cy="49.5" r="49.5" transform="translate(3199.844 -2907)" fill="#fff"/></g></svg>