<svg id="Group_11" data-name="Group 11" xmlns="http://www.w3.org/2000/svg" xmlns:xlink="http://www.w3.org/1999/xlink" width="33" height="33" viewBox="0 0 33 33">
  <defs>
    <radialGradient id="radial-gradient" cx="16.5" cy="16.5" r="16.5" gradientUnits="userSpaceOnUse">
      <stop offset="0" stop-color="#ffc83e" stop-opacity="0.8"/>
      <stop offset="1" stop-color="#ffc83e"/>
    </radialGradient>
  </defs>
  <path id="Path_198" data-name="Path 198" d="M29.7,33H3.3A3.3,3.3,0,0,1,0,29.7V3.3A3.3,3.3,0,0,1,3.3,0H29.7A3.3,3.3,0,0,1,33,3.3V29.7A3.3,3.3,0,0,1,29.7,33Z" fill="url(#radial-gradient)"/>
  <path id="Path_199" data-name="Path 199" d="M73.616,34.042c-.374.374-2.618.2-5.632-.264-2.464-.4-5.478-.968-8.426-1.628-.638-2.948-1.21-5.94-1.606-8.4-.484-3.058-.66-5.324-.308-5.676.44-.44,2.882,1.408,5.742,3.982,2.09,1.892,4.378,4.18,6.27,6.248C72.252,31.138,74.1,33.558,73.616,34.042Z" transform="translate(-44.818 -14.044)" fill="#f2f2f2" opacity="0.9"/>
  <path id="Path_200" data-name="Path 200" d="M26.2,53.919c-.66-.66-2.2-6.446-3.5-12.452-6.028-1.32-11.858-2.9-12.474-3.52-.638-.638,4.95-2.926,10.868-4.906,1.826-.616,3.7-1.188,5.434-1.672,3.894-1.1,7.084-1.76,7.546-1.3S33.9,33.723,32.8,37.617c-.484,1.738-1.056,3.63-1.672,5.478C29.165,49.035,26.877,54.623,26.2,53.919Z" transform="translate(-7.935 -23.339)" fill="#fff"/>
</svg>
