<svg xmlns="http://www.w3.org/2000/svg" xmlns:xlink="http://www.w3.org/1999/xlink" width="402.205" height="400" viewBox="0 0 402.205 400"><defs><filter id="a" x="45.205" y="48" width="311" height="311" filterUnits="userSpaceOnUse"><feOffset dx="-2" dy="4" input="SourceAlpha"/><feGaussianBlur stdDeviation="3" result="b"/><feFlood flood-opacity="0.271"/><feComposite operator="in" in2="b"/><feComposite in="SourceGraphic"/></filter></defs><g transform="translate(1379.205 -331)"><rect width="400" height="400" rx="33" transform="translate(-1377 331)" fill="#006eaa"/><g transform="matrix(1, 0, 0, 1, -1379.2, 331)" filter="url(#a)"><circle cx="146.5" cy="146.5" r="146.5" transform="translate(56.2 53)" fill="#fff"/></g><path d="M102.7-284l176.8,62.4" transform="translate(-1326.7 657.8)" fill="#005380" stroke="#006eaa" stroke-width="6"/><path d="M102.7-284l227.834,65.1" transform="matrix(0.998, 0.07, -0.07, 0.998, -1374.723, 672.367)" fill="#005380" stroke="#006eaa" stroke-width="6"/><path d="M102.7-284l269.148,65.1" transform="matrix(0.995, 0.105, -0.105, 0.995, -1416.768, 691.627)" fill="#005380" stroke="#006eaa" stroke-width="6"/><path d="M102.7-284l312.869,65.1" transform="translate(-1468.377 712.579) rotate(8)" fill="#005380" stroke="#006eaa" stroke-width="6"/><path d="M102.7-284l328.825,65.1" transform="translate(-1494.377 750.579) rotate(8)" fill="#005380" stroke="#006eaa" stroke-width="6"/><path d="M102.7-284l324.939,65.1" transform="translate(-1509.377 797.579) rotate(8)" fill="#005380" stroke="#006eaa" stroke-width="6"/><path d="M102.7-284l324.939,65.1" transform="translate(-1510.377 844.579) rotate(8)" fill="#005380" stroke="#006eaa" stroke-width="6"/><path d="M34,0,68,26H0Z" transform="translate(-1269.031 654.459) rotate(-14)" fill="#fff"/></g></svg>